<?xml version="1.0" encoding="UTF-8"?>
<svg width="50px" height="36px" viewBox="0 0 50 36" version="1.1" xmlns="http://www.w3.org/2000/svg" xmlns:xlink="http://www.w3.org/1999/xlink">
    <!-- Generator: Sketch 41.2 (35397) - http://www.bohemiancoding.com/sketch -->
    <title>US</title>
    <desc>Created with Sketch.</desc>
    <defs>
        <rect id="path-1" x="0" y="0" width="50" height="35.7142857" rx="2"></rect>
        <linearGradient x1="50%" y1="0%" x2="50%" y2="100%" id="linearGradient-3">
            <stop stop-color="#FFFFFF" offset="0%"></stop>
            <stop stop-color="#F0F0F0" offset="100%"></stop>
        </linearGradient>
        <path d="M3.57142857,4.76190476 C4.22891042,4.76190476 4.76190476,4.22891042 4.76190476,3.57142857 C4.76190476,2.91394673 4.22891042,2.38095238 3.57142857,2.38095238 C2.91394673,2.38095238 2.38095238,2.91394673 2.38095238,3.57142857 C2.38095238,4.22891042 2.91394673,4.76190476 3.57142857,4.76190476 Z M8.33333333,4.76190476 C8.99081518,4.76190476 9.52380952,4.22891042 9.52380952,3.57142857 C9.52380952,2.91394673 8.99081518,2.38095238 8.33333333,2.38095238 C7.67585149,2.38095238 7.14285714,2.91394673 7.14285714,3.57142857 C7.14285714,4.22891042 7.67585149,4.76190476 8.33333333,4.76190476 Z M13.0952381,4.76190476 C13.7527199,4.76190476 14.2857143,4.22891042 14.2857143,3.57142857 C14.2857143,2.91394673 13.7527199,2.38095238 13.0952381,2.38095238 C12.4377563,2.38095238 11.9047619,2.91394673 11.9047619,3.57142857 C11.9047619,4.22891042 12.4377563,4.76190476 13.0952381,4.76190476 Z M17.8571429,4.76190476 C18.5146247,4.76190476 19.047619,4.22891042 19.047619,3.57142857 C19.047619,2.91394673 18.5146247,2.38095238 17.8571429,2.38095238 C17.199661,2.38095238 16.6666667,2.91394673 16.6666667,3.57142857 C16.6666667,4.22891042 17.199661,4.76190476 17.8571429,4.76190476 Z M5.95238095,7.14285714 C6.6098628,7.14285714 7.14285714,6.6098628 7.14285714,5.95238095 C7.14285714,5.29489911 6.6098628,4.76190476 5.95238095,4.76190476 C5.29489911,4.76190476 4.76190476,5.29489911 4.76190476,5.95238095 C4.76190476,6.6098628 5.29489911,7.14285714 5.95238095,7.14285714 Z M10.7142857,7.14285714 C11.3717676,7.14285714 11.9047619,6.6098628 11.9047619,5.95238095 C11.9047619,5.29489911 11.3717676,4.76190476 10.7142857,4.76190476 C10.0568039,4.76190476 9.52380952,5.29489911 9.52380952,5.95238095 C9.52380952,6.6098628 10.0568039,7.14285714 10.7142857,7.14285714 Z M15.4761905,7.14285714 C16.1336723,7.14285714 16.6666667,6.6098628 16.6666667,5.95238095 C16.6666667,5.29489911 16.1336723,4.76190476 15.4761905,4.76190476 C14.8187086,4.76190476 14.2857143,5.29489911 14.2857143,5.95238095 C14.2857143,6.6098628 14.8187086,7.14285714 15.4761905,7.14285714 Z M17.8571429,9.52380952 C18.5146247,9.52380952 19.047619,8.99081518 19.047619,8.33333333 C19.047619,7.67585149 18.5146247,7.14285714 17.8571429,7.14285714 C17.199661,7.14285714 16.6666667,7.67585149 16.6666667,8.33333333 C16.6666667,8.99081518 17.199661,9.52380952 17.8571429,9.52380952 Z M13.0952381,9.52380952 C13.7527199,9.52380952 14.2857143,8.99081518 14.2857143,8.33333333 C14.2857143,7.67585149 13.7527199,7.14285714 13.0952381,7.14285714 C12.4377563,7.14285714 11.9047619,7.67585149 11.9047619,8.33333333 C11.9047619,8.99081518 12.4377563,9.52380952 13.0952381,9.52380952 Z M8.33333333,9.52380952 C8.99081518,9.52380952 9.52380952,8.99081518 9.52380952,8.33333333 C9.52380952,7.67585149 8.99081518,7.14285714 8.33333333,7.14285714 C7.67585149,7.14285714 7.14285714,7.67585149 7.14285714,8.33333333 C7.14285714,8.99081518 7.67585149,9.52380952 8.33333333,9.52380952 Z M3.57142857,9.52380952 C4.22891042,9.52380952 4.76190476,8.99081518 4.76190476,8.33333333 C4.76190476,7.67585149 4.22891042,7.14285714 3.57142857,7.14285714 C2.91394673,7.14285714 2.38095238,7.67585149 2.38095238,8.33333333 C2.38095238,8.99081518 2.91394673,9.52380952 3.57142857,9.52380952 Z M5.95238095,11.9047619 C6.6098628,11.9047619 7.14285714,11.3717676 7.14285714,10.7142857 C7.14285714,10.0568039 6.6098628,9.52380952 5.95238095,9.52380952 C5.29489911,9.52380952 4.76190476,10.0568039 4.76190476,10.7142857 C4.76190476,11.3717676 5.29489911,11.9047619 5.95238095,11.9047619 Z M10.7142857,11.9047619 C11.3717676,11.9047619 11.9047619,11.3717676 11.9047619,10.7142857 C11.9047619,10.0568039 11.3717676,9.52380952 10.7142857,9.52380952 C10.0568039,9.52380952 9.52380952,10.0568039 9.52380952,10.7142857 C9.52380952,11.3717676 10.0568039,11.9047619 10.7142857,11.9047619 Z M15.4761905,11.9047619 C16.1336723,11.9047619 16.6666667,11.3717676 16.6666667,10.7142857 C16.6666667,10.0568039 16.1336723,9.52380952 15.4761905,9.52380952 C14.8187086,9.52380952 14.2857143,10.0568039 14.2857143,10.7142857 C14.2857143,11.3717676 14.8187086,11.9047619 15.4761905,11.9047619 Z M17.8571429,14.2857143 C18.5146247,14.2857143 19.047619,13.7527199 19.047619,13.0952381 C19.047619,12.4377563 18.5146247,11.9047619 17.8571429,11.9047619 C17.199661,11.9047619 16.6666667,12.4377563 16.6666667,13.0952381 C16.6666667,13.7527199 17.199661,14.2857143 17.8571429,14.2857143 Z M13.0952381,14.2857143 C13.7527199,14.2857143 14.2857143,13.7527199 14.2857143,13.0952381 C14.2857143,12.4377563 13.7527199,11.9047619 13.0952381,11.9047619 C12.4377563,11.9047619 11.9047619,12.4377563 11.9047619,13.0952381 C11.9047619,13.7527199 12.4377563,14.2857143 13.0952381,14.2857143 Z M8.33333333,14.2857143 C8.99081518,14.2857143 9.52380952,13.7527199 9.52380952,13.0952381 C9.52380952,12.4377563 8.99081518,11.9047619 8.33333333,11.9047619 C7.67585149,11.9047619 7.14285714,12.4377563 7.14285714,13.0952381 C7.14285714,13.7527199 7.67585149,14.2857143 8.33333333,14.2857143 Z M3.57142857,14.2857143 C4.22891042,14.2857143 4.76190476,13.7527199 4.76190476,13.0952381 C4.76190476,12.4377563 4.22891042,11.9047619 3.57142857,11.9047619 C2.91394673,11.9047619 2.38095238,12.4377563 2.38095238,13.0952381 C2.38095238,13.7527199 2.91394673,14.2857143 3.57142857,14.2857143 Z" id="path-4"></path>
        <filter x="-50%" y="-50%" width="200%" height="200%" filterUnits="objectBoundingBox" id="filter-5">
            <feOffset dx="0" dy="1" in="SourceAlpha" result="shadowOffsetOuter1"></feOffset>
            <feColorMatrix values="0 0 0 0 0   0 0 0 0 0   0 0 0 0 0  0 0 0 0.06 0" type="matrix" in="shadowOffsetOuter1"></feColorMatrix>
        </filter>
    </defs>
    <g id="Page-1" stroke="none" stroke-width="1" fill="none" fill-rule="evenodd">
        <g id="Desktop" transform="translate(-30.000000, -3831.000000)">
            <g id="Footer" transform="translate(0.000000, 3565.000000)">
                <g id="US" transform="translate(30.000000, 266.000000)">
                    <mask id="mask-2" fill="white">
                        <use xlink:href="#path-1"></use>
                    </mask>
                    <use id="Mask" fill="#FFFFFF" xlink:href="#path-1"></use>
                    <path d="M0,0 L50,0 L50,2.38095238 L0,2.38095238 L0,0 Z M0,4.76190476 L50,4.76190476 L50,7.14285714 L0,7.14285714 L0,4.76190476 Z M0,9.52380952 L50,9.52380952 L50,11.9047619 L0,11.9047619 L0,9.52380952 Z M0,14.2857143 L50,14.2857143 L50,16.6666667 L0,16.6666667 L0,14.2857143 Z M0,19.047619 L50,19.047619 L50,21.4285714 L0,21.4285714 L0,19.047619 Z M0,23.8095238 L50,23.8095238 L50,26.1904762 L0,26.1904762 L0,23.8095238 Z M0,28.5714286 L50,28.5714286 L50,30.952381 L0,30.952381 L0,28.5714286 Z M0,33.3333333 L50,33.3333333 L50,35.7142857 L0,35.7142857 L0,33.3333333 Z" id="Rectangle-511" fill="#D02F44" mask="url(#mask-2)"></path>
                    <rect id="Rectangle-511" fill="#46467F" mask="url(#mask-2)" x="0" y="0" width="21.4285714" height="16.6666667"></rect>
                    <g id="Oval-43" mask="url(#mask-2)">
                        <use fill="black" fill-opacity="1" filter="url(#filter-5)" xlink:href="#path-4"></use>
                        <use fill="url(#linearGradient-3)" fill-rule="evenodd" xlink:href="#path-4"></use>
                    </g>
                </g>
            </g>
        </g>
    </g>
</svg>